IKResults
version=1
nRows=10
nColumns=40
inDegrees=yes

Units are S.I. units (second, meters, Newtons, ...)
Angles are in degrees.

endheader
time	pelvis_tilt	pelvis_list	pelvis_rotation	pelvis_tx	pelvis_ty	pelvis_tz	hip_flexion_r	hip_adduction_r	hip_rotation_r	knee_angle_r	knee_angle_r_beta	ankle_angle_r	subtalar_angle_r	mtp_angle_r	hip_flexion_l	hip_adduction_l	hip_rotation_l	knee_angle_l	knee_angle_l_beta	ankle_angle_l	subtalar_angle_l	mtp_angle_l	lumbar_extension	lumbar_bending	lumbar_rotation	arm_flex_r	arm_add_r	arm_rot_r	elbow_flex_r	pro_sup_r	wrist_flex_r	wrist_dev_r	arm_flex_l	arm_add_l	arm_rot_l	elbow_flex_l	pro_sup_l	wrist_flex_l	wrist_dev_l
      0.85000000	     18.88652664	      0.53203657	     -3.18737004	     -0.65988833	      0.95156950	      0.98741768	    -10.01020969	     -4.65114716	     -2.56928318	    -47.86525439	     -0.83540629	      5.92810698	    -16.81353035	     12.14798246	    -16.82440843	     -3.80695567	     18.67540094	    -11.01844472	     -0.19230814	      5.16322589	     -6.47860516	     -7.35552469	    -24.23968840	     -2.69826251	     -0.30019695	     -2.99641616	    -11.71273044	      3.48630891	     28.79277930	     89.95437384	      0.00000000	      0.00000000	      5.03970691	      9.44195956	      5.08630502	     20.46678502	     89.95437384	      0.00000000	      0.00000000
      0.86000000	     18.95195903	      0.22345054	     -2.86378213	     -0.65477988	      0.95203642	      0.98646057	     -9.63355941	     -4.34054995	     -3.34414830	    -46.41720313	     -0.81013302	      6.91591560	    -16.95945981	     16.47086796	    -17.26003689	     -3.40877279	     19.00655341	    -11.02318514	     -0.19239087	      5.28693134	     -7.09372617	     -6.70385120	    -24.33239195	     -2.26395498	     -0.59209229	     -2.96284861	    -11.75647401	      3.74466317	     28.97607099	     89.95437384	      0.00000000	      0.00000000	      5.39492336	      9.65533432	      4.21976582	     20.84931747	     89.95437384	      0.00000000	      0.00000000
      0.87000000	     18.93155605	      0.07950933	     -2.69426061	     -0.64980318	      0.95231367	      0.98554379	     -9.08116211	     -4.29733969	     -4.11464143	    -45.03090145	     -0.78593750	      7.63807902	    -17.15038279	     16.20823578	    -17.75738693	     -3.37482457	     18.50967421	    -10.66825892	     -0.18619624	      5.55328928	     -6.62988311	     -6.13362278	    -24.34506202	     -2.03109643	     -0.83773010	     -2.89055397	    -11.78044104	      3.94221617	     29.11819444	     89.95437384	      0.00000000	      0.00000000	      5.82674056	      9.76006639	      3.95012224	     21.02326092	     89.95437384	      0.00000000	      0.00000000
      0.88000000	     18.88806909	      0.00217333	     -2.38889866	     -0.64501318	      0.95258796	      0.98446527	     -8.52587046	     -4.34109710	     -5.16181917	    -43.58521924	     -0.76070558	      8.12758015	    -17.26174093	     15.41644474	    -18.18673234	     -3.35976886	     17.74658231	    -10.37263898	     -0.18103670	      5.78815212	     -6.16420356	     -5.43347769	    -24.35624153	     -1.82425937	     -1.24550774	     -2.76593344	    -11.71837337	      3.94753815	     29.16370691	     89.95437384	      0.00000000	      0.00000000	      6.30631563	      9.86488190	      3.91026633	     21.14321262	     89.95437384	      0.00000000	      0.00000000
      0.89000000	     18.80091943	     -0.20128839	     -2.12435887	     -0.64017693	      0.95272739	      0.98358614	     -7.92153297	     -4.22780965	     -6.14644335	    -42.15305686	     -0.73570963	      8.55913650	    -17.28461775	     14.92267442	    -18.46683613	     -3.10790291	     17.83088221	    -10.24122960	     -0.17874318	      5.93184120	     -6.46174064	     -5.08633743	    -24.31832168	     -1.51408981	     -1.51346869	     -2.71181437	    -11.68706049	      3.95929609	     29.20244660	     89.95437384	      0.00000000	      0.00000000	      6.77952043	      9.96139145	      3.69112062	     21.27881666	     89.95437384	      0.00000000	      0.00000000
      0.90000000	     18.71356998	     -0.29242928	     -1.98911037	     -0.63540297	      0.95289128	      0.98290419	     -7.27490133	     -4.28381051	     -7.21761761	    -40.77137559	     -0.71159474	      8.74870175	    -17.20399612	     14.47782394	    -18.77755356	     -3.02193485	     17.84716582	    -10.10157016	     -0.17630566	      5.80110150	     -6.84569536	     -4.94310247	    -24.25691803	     -1.36949879	     -1.67392284	     -2.65663243	    -11.59446561	      3.79667214	     29.15991670	     89.95437384	      0.00000000	      0.00000000	      7.29022353	     10.01375917	      3.68394581	     21.32131021	     89.95437384	      0.00000000	      0.00000000
      0.91000000	     18.68228455	     -0.52568227	     -1.62549704	     -0.63092689	      0.95316730	      0.98209862	     -6.79131146	     -4.03318021	     -8.21702179	    -39.21936739	     -0.68450709	      8.95776890	    -17.09037698	     14.42607434	    -19.09207956	     -2.72478291	     17.54407527	    -10.02187982	     -0.17491480	      6.10160105	     -6.60664771	     -4.86611234	    -24.35168748	     -1.00434675	     -2.07701329	     -2.50254038	    -11.53717222	      3.82127168	     29.16975276	     89.95437384	      0.00000000	      0.00000000	      7.69073846	     10.20143715	      3.39861164	     21.56341093	     89.95437384	      0.00000000	      0.00000000
      0.92000000	     18.56464803	     -0.71320910	     -1.52843615	     -0.62645458	      0.95326695	      0.98171120	     -6.08383969	     -3.87748725	     -9.00209307	    -37.87609276	     -0.66106253	      8.91086527	    -16.75530080	     14.17358222	    -19.35781554	     -2.53371633	     17.55555644	     -9.83924159	     -0.17172716	      6.05890766	     -6.88367768	     -4.75564764	    -24.33081079	     -0.78920978	     -2.15779960	     -2.41149506	    -11.41674681	      3.54550705	     29.11371668	     89.95437384	      0.00000000	      0.00000000	      8.24532243	     10.21611658	      3.58038567	     21.53970409	     89.95437384	      0.00000000	      0.00000000
      0.93000000	     18.45546970	     -0.91604557	     -1.48822796	     -0.62202304	      0.95331032	      0.98148932	     -5.41367956	     -3.62368650	     -9.49974103	    -36.49198385	     -0.63690527	      8.94678944	    -16.33430001	     14.09955995	    -19.64674391	     -2.37134610	     17.44604008	     -9.66008221	     -0.16860024	      6.31676307	     -6.59547659	     -4.76701107	    -24.31940100	     -0.59001992	     -2.21950083	     -2.31272242	    -11.41233990	      3.71033668	     29.07138012	     89.95437384	      0.00000000	      0.00000000	      8.60462902	     10.42113187	      2.98558824	     21.81130925	     89.95437384	      0.00000000	      0.00000000
      0.94000000	     18.29129164	     -1.15747198	     -1.44464147	     -0.61778415	      0.95323243	      0.98141391	     -4.66325672	     -3.28859851	     -9.91960236	    -35.14996045	     -0.61348254	      9.13876179	    -15.55384876	     14.10425952	    -19.76825073	     -2.09994376	     17.61519106	     -9.68338893	     -0.16900702	      6.43700194	     -6.70809673	     -4.87734071	    -24.27643342	     -0.35837048	     -2.25183176	     -2.17220246	    -11.25552349	      3.41554843	     28.94116585	     89.95437384	      0.00000000	      0.00000000	      9.13717839	     10.46502304	      3.20104280	     21.82218840	     89.95437384	      0.00000000	      0.00000000
